<svg xmlns="http://www.w3.org/2000/svg" viewBox="0 0 67 77.7"><defs><style>.a{fill:none;}</style></defs><title>filter</title><ellipse class="a" cx="33.5" cy="10.7" rx="32.5" ry="9.9"/><path d="M83.5,21.7a4.76,4.76,0,0,0-.7-2.3,11,11,0,0,0-4.3-3.3c-5.9-3-16.5-4.9-28.5-4.9-9.2,0-17.5,1.1-23.6,3a23.06,23.06,0,0,0-7.2,3.3,6.33,6.33,0,0,0-2,2,3.89,3.89,0,0,0-.7,2.3,4.76,4.76,0,0,0,.7,2.3,2.18,2.18,0,0,0,.4.5L42,61.4V88.9L58.7,77.4v-16L83.3,23.3H83.2A7.58,7.58,0,0,0,83.5,21.7ZM50,31.9c-17.9,0-32.5-4.4-32.5-9.9S32.1,12.1,50,12.1,82.5,16.5,82.5,22,67.9,31.9,50,31.9Z" transform="translate(-16.5 -11.2)"/></svg>