<svg xmlns="http://www.w3.org/2000/svg" viewBox="-7 -10 90 90"><title>image</title><path d="M16.39,22.57h0.49l58,6.23L71.8,10.07a2.79,2.79,0,0,0-3.2-2.3L6.31,18A2.79,2.79,0,0,0,4,21.24L9.14,52.37,11.91,26.6A4.5,4.5,0,0,1,16.39,22.57Z" transform="translate(-3.97 -7.73)"/><path d="M80,32.78l-4.56-.49L16.52,26H16.39a1.12,1.12,0,0,0-1.12,1L11.2,64.86l-1,9.35a1.13,1.13,0,0,0,1,1.24l63.5,6.82a1.13,1.13,0,0,0,1.24-1l2.38-22.15,0.62-5.75L81,34A1.13,1.13,0,0,0,80,32.78ZM70.79,60.67L69.06,76.76,17.14,71.18l0.18-1.68,3.87-36,51.92,5.58Z" transform="translate(-3.97 -7.73)"/><polygon points="20.22 29.44 16.89 60.45 19.54 60.73 62.09 65.3 63.35 53.51 65.42 34.3 20.22 29.44"/></svg>