<svg xmlns="http://www.w3.org/2000/svg" viewBox="0 0 80.01 84"><title>settings</title><path d="M44,8a4,4,0,0,0-4,4v5.5a33.85,33.85,0,0,0-13.44,7.91l-4.81-2.69a4,4,0,0,0-5.41,1.53L10.5,34.72a4,4,0,0,0,1.56,5.47l4.78,2.69a34.22,34.22,0,0,0,0,14.25l-4.78,2.69a4,4,0,0,0-1.56,5.47l5.87,10.47a4,4,0,0,0,5.41,1.53l4.81-2.69A33.85,33.85,0,0,0,40,82.5V88a4,4,0,0,0,4,4H56a4,4,0,0,0,4-4V82.5a33.85,33.85,0,0,0,13.44-7.91l4.81,2.69a4,4,0,0,0,5.41-1.53L89.5,65.28a4,4,0,0,0-1.56-5.47l-4.78-2.69a34.22,34.22,0,0,0,0-14.25l4.78-2.69a4,4,0,0,0,1.56-5.47L83.63,24.25a4,4,0,0,0-5.41-1.53l-4.81,2.69A33.85,33.85,0,0,0,60,17.5V12a4,4,0,0,0-4-4H44Zm6,22A20,20,0,1,1,30,50,20,20,0,0,1,50,30Zm0,4A16,16,0,1,0,66,50,16,16,0,0,0,50,34Z" transform="translate(-10 -8)"/></svg>