<svg xmlns="http://www.w3.org/2000/svg" viewBox="0 0 78 78"><title>image</title><path d="M24,27.07l0.49,0,58,6.23L79.41,14.57a2.79,2.79,0,0,0-3.2-2.3L13.92,22.54a2.79,2.79,0,0,0-2.3,3.2l5.13,31.13L19.52,31.1A4.5,4.5,0,0,1,24,27.07Z" transform="translate(-11.58 -12.23)"/><path d="M87.63,37.28l-4.56-.49L24.13,30.46H24a1.12,1.12,0,0,0-1.12,1L18.81,69.36l-1,9.35a1.13,1.13,0,0,0,1,1.24l63.5,6.82a1.13,1.13,0,0,0,1.24-1l2.38-22.15,0.62-5.75,2.08-19.36A1.13,1.13,0,0,0,87.63,37.28ZM78.4,65.17L76.67,81.26,24.75,75.68,24.93,74,28.8,38l51.92,5.58Z" transform="translate(-11.58 -12.23)"/><polygon points="20.22 29.44 16.89 60.45 19.54 60.73 62.09 65.3 63.35 53.51 65.42 34.3 20.22 29.44"/></svg>